<svg width="182" height="48" viewBox="0 0 182 48" fill="none" xmlns="http://www.w3.org/2000/svg">
<path d="M0 32.81C0 30.6009 1.79086 28.81 4 28.81H18.56C20.7691 28.81 22.56 30.6009 22.56 32.81V48H0V32.81Z" fill="#4EDEA3" fill-opacity="0.2"/>
<path d="M26.56 23.2C26.56 20.9909 28.3509 19.2 30.56 19.2H45.14C47.3491 19.2 49.14 20.9909 49.14 23.2V48H26.56V23.2Z" fill="#4EDEA3" fill-opacity="0.2"/>
<path d="M53.14 28C53.14 25.7909 54.9309 24 57.14 24H71.7C73.9092 24 75.7 25.7909 75.7 28V48H53.14V28Z" fill="#4EDEA3" fill-opacity="0.2"/>
<path d="M79.7 13.61C79.7 11.4009 81.4909 9.61 83.7 9.61H98.28C100.489 9.61 102.28 11.4009 102.28 13.61V48H79.7V13.61Z" fill="#4EDEA3" fill-opacity="0.2"/>
<path d="M106.28 18.41C106.28 16.2009 108.071 14.41 110.28 14.41H124.84C127.049 14.41 128.84 16.2009 128.84 18.41V48H106.28V18.41Z" fill="#4EDEA3" fill-opacity="0.2"/>
<path d="M132.84 8.81C132.84 6.60086 134.631 4.81 136.84 4.81H151.42C153.629 4.81 155.42 6.60086 155.42 8.81V48H132.84V8.81Z" fill="#4EDEA3" fill-opacity="0.2"/>
<path d="M159.42 4C159.42 1.79086 161.211 0 163.42 0H178C180.209 0 182 1.79086 182 4V48H159.42V4Z" fill="#4EDEA3" fill-opacity="0.4"/>
</svg>
